#!OML:ASF H:\Male1\Project 1\Capture day 1\Session 1\Male1.ASF
:FULLY-SPECIFIED
:DEGREES
943
root 15.0695 14.8683 -1.49728 -3.99289 -95.0599 1.94835
lowerback 5.94632 -0.120308 -0.843379
upperback 5.39824 -0.360305 -0.165692
thorax 2.23167 -0.276024 0.313216
lowerneck -4.73268 -8.35497 -0.596713
upperneck 5.12356 -11.1871 0.939997
head 2.52391 -5.54992 -0.0130367
rclavicle 6.26172e-015 -7.55382e-015
rhumerus -37.306 16.6519 -89.1575
rradius 39.7026
rwrist -26.2996
rhand -26.9949 6.73735
rfingers 7.12502
rthumb -0.415134 -23.242
lclavicle 6.26172e-015 -7.55382e-015
lhumerus -38.6879 23.126 70.3758
lradius 26.3278
lwrist -7.01452
lhand -18.4465 5.94575
lfingers 7.12502
lthumb 7.83945 35.7804
rfemur -13.5265 17.1031 21.3323
rtibia 40.7267
rfoot -33.8663 -25.1401
rtoes -29.6868
lfemur -14.0157 -12.2243 -19.0268
ltibia 42.8309
lfoot -30.4987 21.716
ltoes -8.67591
944
root 15.0878 14.8738 -1.48723 -7.12528 -94.861 4.93205
lowerback 6.11241 -0.13156 -0.560113
upperback 5.32112 -0.363073 -0.188297
thorax 2.05748 -0.266578 0.132845
lowerneck -4.74535 -8.39527 -0.608468
upperneck 5.29956 -11.2401 0.874866
head 2.58221 -5.57742 -0.0392677
rclavicle -1.16786e-015 2.18663e-015
rhumerus -37.1757 15.9074 -89.1266
rradius 38.3106
rwrist -25.5416
rhand -26.7239 7.03221
rfingers 7.12502
rthumb -0.153447 -22.9475
lclavicle -1.16786e-015 2.18663e-015
lhumerus -38.0324 22.0308 71.0625
lradius 26.9161
lwrist -6.02328
lhand -18.6902 5.97772
lfingers 7.12502
lthumb 7.60422 35.821
rfemur -13.2633 17.2476 21.6316
rtibia 40.5473
rfoot -34.0363 -25.4766
rtoes -28.8731
lfemur -13.7518 -12.8336 -18.9044
ltibia 42.5622
lfoot -30.6509 22.157
ltoes -9.14986
945
root 15.103 14.8798 -1.47923 -6.13676 -94.5444 3.8872
lowerback 6.12278 -0.154589 -0.672965
upperback 5.22833 -0.392945 -0.294714
thorax 1.95563 -0.280516 0.0885545
lowerneck -4.74104 -8.42372 -0.677203
upperneck 5.47961 -11.2816 0.934311
head 2.65077 -5.59657 -0.0172197
rclavicle -6.90777e-015 -2.5842e-015
rhumerus -37.0249 15.2307 -89.0926
rradius 37.0707
rwrist -24.6054
rhand -26.5079 7.36467
rfingers 7.12502
rthumb 0.0552411 -22.6151
lclavicle -6.90777e-015 -2.5842e-015
lhumerus -37.3116 20.8864 71.8309
lradius 27.5166
lwrist -5.03486
lhand -19.5166 6.01456
lfingers 7.12502
lthumb 6.80651 35.8852
rfemur -13.1395 17.4151 21.5421
rtibia 40.4388
rfoot -34.2286 -25.9416
rtoes -28.9113
lfemur -13.6015 -13.8235 -19.1934
ltibia 42.3116
lfoot -30.851 22.7567
ltoes -9.29781
946
root 15.1135 14.8891 -1.47311 -3.99787 -94.1989 1.87635
lowerback 5.82902 -0.175391 -0.863675
upperback 5.14995 -0.417354 -0.408478
thorax 2.03811 -0.293348 0.0780254
lowerneck -4.83897 -8.46922 -0.705911
upperneck 5.63966 -11.344 0.940997
head 2.72573 -5.62633 -0.0230733
rclavicle -1.87852e-014 -2.98177e-015
rhumerus -36.7617 14.4593 -88.9635
rradius 35.9638
rwrist -23.3765
rhand -26.1538 7.46509
rfingers 7.12502
rthumb 0.397196 -22.5143
lclavicle -1.87852e-014 -2.98177e-015
lhumerus -36.4939 19.7053 72.7023
lradius 28.1118
lwrist -4.05172
lhand -20.7301 6.05054
lfingers 7.12502
lthumb 5.63497 35.9556
rfemur -13.233 17.6635 21.3656
rtibia 40.408
rfoot -34.384 -26.4552
rtoes -29.4225
lfemur -13.6552 -14.9487 -19.5176
ltibia 42.0774
lfoot -30.9958 23.3
ltoes -8.40961
947
root 15.1226 14.899 -1.46957 -2.869 -93.9208 0.916189
lowerback 5.43699 -0.18208 -1.06848
upperback 5.10688 -0.42228 -0.423241
thorax 2.21293 -0.299387 0.175361
lowerneck -4.87869 -8.53609 -0.710366
upperneck 5.63083 -11.4249 0.829734
head 2.72347 -5.66999 -0.061692
rclavicle 1.29707e-014 1.37161e-014
rhumerus -36.4741 13.8497 -88.7427
rradius 34.9946
rwrist -22.1071
rhand -25.475 7.21147
rfingers 7.12502
rthumb 1.05278 -22.7657
lclavicle 1.29707e-014 1.37161e-014
lhumerus -35.3866 18.8442 73.615
lradius 28.2311
lwrist -3.40182
lhand -21.9697 5.67956
lfingers 7.12502
lthumb 4.43804 35.6131
rfemur -13.3839 18.1032 21.3046
rtibia 40.4085
rfoot -34.6361 -26.8666
rtoes -29.0138
lfemur -13.7702 -15.9597 -19.702
ltibia 41.8612
lfoot -31.0517 23.7183
ltoes -6.82052
948
root 15.1318 14.9073 -1.46968 -2.56472 -93.6903 0.728934
lowerback 5.15363 -0.15402 -1.29354
upperback 5.01241 -0.381512 -0.396208
thorax 2.27417 -0.282896 0.326636
lowerneck -4.78658 -8.61137 -0.766162
upperneck 5.65482 -11.5221 0.815518
head 2.71804 -5.72046 -0.0573512
rclavicle -1.16786e-014 -8.94531e-015
rhumerus -36.3847 13.4238 -88.5838
rradius 34.2392
rwrist -21.2725
rhand -24.8532 6.74012
rfingers 7.12502
rthumb 1.65335 -23.2332
lclavicle -1.16786e-014 -8.94531e-015
lhumerus -34.1007 18.09 74.4953
lradius 27.9201
lwrist -3.18008
lhand -23.018 5.5614
lfingers 7.12502
lthumb 3.42575 35.5136
rfemur -13.4765 18.5961 21.3321
rtibia 40.3883
rfoot -34.9904 -27.1946
rtoes -27.9999
lfemur -13.8372 -16.8903 -19.8108
ltibia 41.6849
lfoot -31.2899 24.119
ltoes -5.31771
949
root 15.1398 14.9116 -1.47024 -3.6165 -93.492 1.78486
lowerback 4.95828 -0.097426 -1.39462
upperback 4.94967 -0.301509 -0.381214
thorax 2.3175 -0.243938 0.39558
lowerneck -4.72682 -8.68485 -0.918879
upperneck 5.75156 -11.6235 0.978696
head 2.76206 -5.7687 0.0125207
rclavicle 1.15295e-014 -2.38542e-015
rhumerus -36.2762 12.9578 -88.4543
rradius 33.5174
rwrist -20.7839
rhand -24.4151 6.6577
rfingers 7.12502
rthumb 2.07645 -23.3119
lclavicle 1.15295e-014 -2.38542e-015
lhumerus -32.8229 17.1776 75.3879
lradius 27.7132
lwrist -3.05451
lhand -23.7093 5.84658
lfingers 7.12502
lthumb 2.7581 35.8085
rfemur -13.4286 18.8564 21.4601
rtibia 40.3614
rfoot -35.3608 -27.4285
rtoes -27.2322
lfemur -13.762 -17.6106 -19.8335
ltibia 41.5283
lfoot -31.7813 24.2869
ltoes -4.11892
